<?xml version="1.0" encoding="utf-8"?>
<!-- Generator: Adobe Illustrator 19.1.0, SVG Export Plug-In . SVG Version: 6.00 Build 0)  -->
<svg version="1.1" id="Layer_1" xmlns="http://www.w3.org/2000/svg" xmlns:xlink="http://www.w3.org/1999/xlink" x="0px" y="0px"
	 viewBox="-427.8 232.1 97.8 98.1" style="enable-background:new -427.8 232.1 97.8 98.1;" xml:space="preserve">
<style type="text/css">
	.st0{fill:#FFFFFF;}
</style>
<g>
	<g>
		<path class="st0" d="M-332.1,320.1l-14.8-14.8c-0.4-0.4-0.4-1.1-0.1-1.5c6.1-7.1,8.9-18.5,8.9-26c0-24.3-21.3-45.6-45.5-45.6
			c-24.3,0-44.1,19.8-44.1,44.2c0,24.3,21.3,45.6,45.5,45.6c7.5,0,18.9-3,25.3-8.5c0.2-0.2,0.5-0.3,0.7-0.3c0.3,0,0.6,0.1,0.8,0.3
			l15,15c1.2,1.2,2.7,1.9,4.2,1.9c1.4,0,2.7-0.5,3.7-1.6l1-1C-328.9,325.1-330.2,322-332.1,320.1z M-382.2,310.2
			c-18.1,0-33.9-15.8-33.9-33.9c0-17.9,14.6-32.5,32.5-32.5c18.1,0,33.9,15.8,33.9,33.9C-349.7,295.6-364.3,310.2-382.2,310.2z"/>
		<path class="st0" d="M-369.8,271.3h-7.4v-7.4c0-3.1-2.6-5.7-5.7-5.7s-5.7,2.6-5.7,5.7v7.4h-7.4c-3.1,0-5.7,2.6-5.7,5.7
			s2.6,5.7,5.7,5.7h7.4v7.4c0,3.1,2.6,5.7,5.7,5.7s5.7-2.6,5.7-5.7v-7.4h7.4c3.1,0,5.7-2.6,5.7-5.7S-366.7,271.3-369.8,271.3z"/>
	</g>
</g>
</svg>
